<?xml version="1.0" encoding="UTF-8"?>
<svg width="81px" height="84px" viewBox="0 0 81 84" version="1.1" xmlns="http://www.w3.org/2000/svg" xmlns:xlink="http://www.w3.org/1999/xlink">
    <!-- Generator: Sketch 49 (51002) - http://www.bohemiancoding.com/sketch -->
    <title>Group 6</title>
    <desc>Created with Sketch.</desc>
    <defs></defs>
    <g id="Page-1" stroke="none" stroke-width="1" fill="none" fill-rule="evenodd">
        <g id="Desktop-Copy-8" transform="translate(-202.000000, -3359.000000)">
            <g id="Group-6" transform="translate(201.000000, 3359.000000)">
                <rect id="Rectangle-3" transform="translate(42.000000, 42.000000) scale(-1, 1) translate(-42.000000, -42.000000) " x="0" y="0" width="84" height="84"></rect>
                <path d="M48.6918772,11.095505 C33.2205641,5.39083886 22.4870787,7.0192895 16.4914207,15.9808569 C7.49793388,29.4232081 4.40100314,65.9984639 10.4462119,79.6774492 C16.4914207,93.3564346 79.6402208,72.7749813 81.8681051,43.1231852 C83.3533613,23.3553211 72.2946187,12.6794277 48.6918772,11.095505 Z" id="Path" fill="#8BD8FF" transform="translate(44.659574, 45.883562) scale(-1, 1) translate(-44.659574, -45.883562) "></path>
                <path d="M17.0851064,10.9315068 C34.5697094,11.3946397 42.0762338,18.9699822 39.6046798,33.6575342 C31.9906479,23.2214463 24.4841234,15.6461038 17.0851064,10.9315068 Z" id="Path-3" fill="#DCCC02" transform="translate(28.574468, 22.294521) scale(-1, 1) translate(-28.574468, -22.294521) "></path>
                <path d="M1.06248905,11.1285422 C-0.270450995,8.76403724 20.0536055,7.04262973 30.242941,12.7942095 C34.5571638,15.6927329 39.908786,22.1158257 40.0638298,29.0547945 C28.6916325,18.7871142 18.6477595,13.1623176 1.06248905,11.1285422 Z" id="Path-4" fill="#DCCC02" transform="translate(20.531915, 18.986301) scale(-1, 1) translate(-20.531915, -18.986301) "></path>
                <path d="M66.5430574,14.6712329 C55.2152223,6.55146483 46.4786003,4.86392659 34.606383,5.53036527 C38.2212035,1.02728389 44.6162647,-0.338115077 48.6139983,0.0678491754 C57.5001669,1.74987134 68.5242483,13.8257039 66.5430574,14.6712329 Z" id="Path-45" fill="#DCCC02" transform="translate(50.691489, 7.335616) scale(-1, 1) translate(-50.691489, -7.335616) "></path>
                <path d="M30.5851064,10.9315068 C32.8636779,6.86262934 34.5428454,4.53672308 35.6226091,3.95378807 C37.2422546,3.07938555 39.9291098,5.14108579 40.5913618,5.52940198 C41.0328632,5.78827945 38.3596474,7.58898107 32.5717146,10.9315068 L30.5851064,10.9315068 Z" id="Path-5" fill="#AFA200" transform="translate(35.611702, 7.335616) scale(-1, 1) translate(-35.611702, -7.335616) "></path>
                <path d="M54.1382979,17.8356164 C51.2659574,20.3951914 50.5478723,21.7351758 51.9840426,21.8555697 C53.4202128,21.9759636 54.1382979,20.6359792 54.1382979,17.8356164 Z" id="Path-6" fill="#F0E238" transform="translate(52.702128, 19.849315) scale(-1, 1) translate(-52.702128, -19.849315) "></path>
                <path d="M51.8404255,26.7534247 C48.9680851,29.3129996 48.25,30.652984 49.6861702,30.7733779 C51.1223404,30.8937719 51.8404255,29.5537874 51.8404255,26.7534247 Z" id="Path-6-Copy" fill="#F0E238" transform="translate(50.404255, 28.767123) scale(-1, 1) translate(-50.404255, -28.767123) "></path>
                <path d="M58.1595745,39.4109589 C55.287234,41.9705338 54.5691489,43.3105183 56.0053191,43.4309122 C57.4414894,43.5513061 58.1595745,42.2113217 58.1595745,39.4109589 Z" id="Path-6-Copy-11" fill="#F0E238" transform="translate(56.723404, 41.424658) scale(-1, 1) translate(-56.723404, -41.424658) "></path>
                <path d="M63.0425532,52.3561644 C60.1702128,54.9157393 59.4521277,56.2557237 60.8882979,56.3761177 C62.3244681,56.4965116 63.0425532,55.1565272 63.0425532,52.3561644 Z" id="Path-6-Copy-17" fill="#F0E238" transform="translate(61.606383, 54.369863) scale(-1, 1) translate(-61.606383, -54.369863) "></path>
                <path d="M65.9148936,66.4520548 C63.0425532,69.0116297 62.3244681,70.3516141 63.7606383,70.4720081 C65.1968085,70.592402 65.9148936,69.2524176 65.9148936,66.4520548 Z" id="Path-6-Copy-21" fill="#F0E238" transform="translate(64.478723, 68.465753) scale(-1, 1) translate(-64.478723, -68.465753) "></path>
                <path d="M73.9574468,74.5068493 C71.0851064,77.0664242 70.3670213,78.4064087 71.8031915,78.5268026 C73.2393617,78.6471965 73.9574468,77.3072121 73.9574468,74.5068493 Z" id="Path-6-Copy-32" fill="#F0E238" transform="translate(72.521277, 76.520548) scale(-1, 1) translate(-72.521277, -76.520548) "></path>
                <path d="M61.893617,31.3561644 C59.0212766,33.9157393 58.3031915,35.2557237 59.7393617,35.3761177 C61.1755319,35.4965116 61.893617,34.1565272 61.893617,31.3561644 Z" id="Path-6-Copy-8" fill="#F0E238" transform="translate(60.457447, 33.369863) scale(-1, 1) translate(-60.457447, -33.369863) "></path>
                <path d="M69.0744681,40.8493151 C66.2021277,43.40889 65.4840426,44.7488744 66.9202128,44.8692684 C68.356383,44.9896623 69.0744681,43.6496779 69.0744681,40.8493151 Z" id="Path-6-Copy-12" fill="#F0E238" transform="translate(67.638298, 42.863014) scale(-1, 1) translate(-67.638298, -42.863014) "></path>
                <path d="M71.3723404,58.3972603 C68.5,60.9568352 67.7819149,62.2968196 69.2180851,62.4172136 C70.6542553,62.5376075 71.3723404,61.1976231 71.3723404,58.3972603 Z" id="Path-6-Copy-22" fill="#F0E238" transform="translate(69.936170, 60.410959) scale(-1, 1) translate(-69.936170, -60.410959) "></path>
                <path d="M78.5638298,38.8356164 C75.6914894,41.3951914 74.9734043,42.7351758 76.4095745,42.8555697 C77.8457447,42.9759636 78.5638298,41.6359792 78.5638298,38.8356164 Z" id="Path-6-Copy-20" fill="#F0E238" transform="translate(77.127660, 40.849315) scale(-1, 1) translate(-77.127660, -40.849315) "></path>
                <path d="M76.5425532,50.3424658 C73.6702128,52.9020407 72.9521277,54.2420251 74.3882979,54.362419 C75.8244681,54.482813 76.5425532,53.1428285 76.5425532,50.3424658 Z" id="Path-6-Copy-16" fill="#F0E238" transform="translate(75.106383, 52.356164) scale(-1, 1) translate(-75.106383, -52.356164) "></path>
                <path d="M78.4148936,64.4383562 C75.5425532,66.9979311 74.8244681,68.3379155 76.2606383,68.4583094 C77.6968085,68.5787034 78.4148936,67.2387189 78.4148936,64.4383562 Z" id="Path-6-Copy-23" fill="#F0E238" transform="translate(76.978723, 66.452055) scale(-1, 1) translate(-76.978723, -66.452055) "></path>
                <path d="M73.9574468,29.3424658 C71.0851064,31.9020407 70.3670213,33.2420251 71.8031915,33.362419 C73.2393617,33.482813 73.9574468,32.1428285 73.9574468,29.3424658 Z" id="Path-6-Copy-7" fill="#F0E238" transform="translate(72.521277, 31.356164) scale(-1, 1) translate(-72.521277, -31.356164) "></path>
                <path d="M64.4787234,23.3013699 C61.606383,25.8609448 60.8882979,27.2009292 62.3244681,27.3213231 C63.7606383,27.4417171 64.4787234,26.1017326 64.4787234,23.3013699 Z" id="Path-6-Copy-2" fill="#F0E238" transform="translate(63.042553, 25.315068) scale(-1, 1) translate(-63.042553, -25.315068) "></path>
                <path d="M70.5106383,17.5479452 C67.6382979,20.1075201 66.9202128,21.4475046 68.356383,21.5678985 C69.7925532,21.6882924 70.5106383,20.348308 70.5106383,17.5479452 Z" id="Path-6-Copy-6" fill="#F0E238" transform="translate(69.074468, 19.561644) scale(-1, 1) translate(-69.074468, -19.561644) "></path>
                <path d="M41.787234,17.5479452 C38.9148936,20.1075201 38.1968085,21.4475046 39.6329787,21.5678985 C41.0691489,21.6882924 41.787234,20.348308 41.787234,17.5479452 Z" id="Path-6-Copy-3" fill="#F0E238" transform="translate(40.351064, 19.561644) scale(-1, 1) translate(-40.351064, -19.561644) "></path>
                <path d="M41.787234,26.7534247 C38.9148936,29.3129996 38.1968085,30.652984 39.6329787,30.7733779 C41.0691489,30.8937719 41.787234,29.5537874 41.787234,26.7534247 Z" id="Path-6-Copy-4" fill="#F0E238" transform="translate(40.351064, 28.767123) scale(-1, 1) translate(-40.351064, -28.767123) "></path>
                <path d="M34.0319149,31.9315068 C31.1595745,34.4910818 30.4414894,35.8310662 31.8776596,35.9514601 C33.3138298,36.0718541 34.0319149,34.7318696 34.0319149,31.9315068 Z" id="Path-6-Copy-10" fill="#F0E238" transform="translate(32.595745, 33.945205) scale(-1, 1) translate(-32.595745, -33.945205) "></path>
                <path d="M28.8617021,39.4109589 C25.9893617,41.9705338 25.2712766,43.3105183 26.7074468,43.4309122 C28.143617,43.5513061 28.8617021,42.2113217 28.8617021,39.4109589 Z" id="Path-6-Copy-14" fill="#F0E238" transform="translate(27.425532, 41.424658) scale(-1, 1) translate(-27.425532, -41.424658) "></path>
                <path d="M21.9680851,31.3561644 C19.0957447,33.9157393 18.3776596,35.2557237 19.8138298,35.3761177 C21.25,35.4965116 21.9680851,34.1565272 21.9680851,31.3561644 Z" id="Path-6-Copy-33" fill="#F0E238" transform="translate(20.531915, 33.369863) scale(-1, 1) translate(-20.531915, -33.369863) "></path>
                <path d="M47.8191489,35.3835616 C44.9468085,37.9431366 44.2287234,39.283121 45.6648936,39.4035149 C47.1010638,39.5239089 47.8191489,38.1839244 47.8191489,35.3835616 Z" id="Path-6-Copy-9" fill="#F0E238" transform="translate(46.382979, 37.397260) scale(-1, 1) translate(-46.382979, -37.397260) "></path>
                <path d="M42.0744681,42.8630137 C39.2021277,45.4225886 38.4840426,46.7625731 39.9202128,46.882967 C41.356383,47.0033609 42.0744681,45.6633765 42.0744681,42.8630137 Z" id="Path-6-Copy-15" fill="#F0E238" transform="translate(40.638298, 44.876712) scale(-1, 1) translate(-40.638298, -44.876712) "></path>
                <path d="M34.0319149,48.3287671 C31.1595745,50.888342 30.4414894,52.2283265 31.8776596,52.3487204 C33.3138298,52.4691143 34.0319149,51.1291299 34.0319149,48.3287671 Z" id="Path-6-Copy-18" fill="#F0E238" transform="translate(32.595745, 50.342466) scale(-1, 1) translate(-32.595745, -50.342466) "></path>
                <path d="M38.9148936,54.9452055 C36.0425532,57.5047804 35.3244681,58.8447648 36.7606383,58.9651588 C38.1968085,59.0855527 38.9148936,57.7455683 38.9148936,54.9452055 Z" id="Path-6-Copy-36" fill="#F0E238" transform="translate(37.478723, 56.958904) scale(-1, 1) translate(-37.478723, -56.958904) "></path>
                <path d="M21.9680851,56.3835616 C19.0957447,58.9431366 18.3776596,60.283121 19.8138298,60.4035149 C21.25,60.5239089 21.9680851,59.1839244 21.9680851,56.3835616 Z" id="Path-6-Copy-30" fill="#F0E238" transform="translate(20.531915, 58.397260) scale(-1, 1) translate(-20.531915, -58.397260) "></path>
                <path d="M23.1170213,46.890411 C20.2446809,49.4499859 19.5265957,50.7899703 20.962766,50.9103642 C22.3989362,51.0307582 23.1170213,49.6907737 23.1170213,46.890411 Z" id="Path-6-Copy-29" fill="#F0E238" transform="translate(21.680851, 48.904110) scale(-1, 1) translate(-21.680851, -48.904110) "></path>
                <path d="M13.0638298,38.8356164 C10.1914894,41.3951914 9.47340426,42.7351758 10.9095745,42.8555697 C12.3457447,42.9759636 13.0638298,41.6359792 13.0638298,38.8356164 Z" id="Path-6-Copy-28" fill="#F0E238" transform="translate(11.627660, 40.849315) scale(-1, 1) translate(-11.627660, -40.849315) "></path>
                <path d="M54.1382979,48.3287671 C51.2659574,50.888342 50.5478723,52.2283265 51.9840426,52.3487204 C53.4202128,52.4691143 54.1382979,51.1291299 54.1382979,48.3287671 Z" id="Path-6-Copy-13" fill="#F0E238" transform="translate(52.702128, 50.342466) scale(-1, 1) translate(-52.702128, -50.342466) "></path>
                <path d="M46.0957447,52.3561644 C43.2234043,54.9157393 42.5053191,56.2557237 43.9414894,56.3761177 C45.3776596,56.4965116 46.0957447,55.1565272 46.0957447,52.3561644 Z" id="Path-6-Copy-19" fill="#F0E238" transform="translate(44.659574, 54.369863) scale(-1, 1) translate(-44.659574, -54.369863) "></path>
                <path d="M47.8191489,62.4246575 C44.9468085,64.9842325 44.2287234,66.3242169 45.6648936,66.4446108 C47.1010638,66.5650047 47.8191489,65.2250203 47.8191489,62.4246575 Z" id="Path-6-Copy-25" fill="#F0E238" transform="translate(46.382979, 64.438356) scale(-1, 1) translate(-46.382979, -64.438356) "></path>
                <path d="M46.0957447,68.4657534 C43.2234043,71.0253284 42.5053191,72.3653128 43.9414894,72.4857067 C45.3776596,72.6061006 46.0957447,71.2661162 46.0957447,68.4657534 Z" id="Path-6-Copy-34" fill="#F0E238" transform="translate(44.659574, 70.479452) scale(-1, 1) translate(-44.659574, -70.479452) "></path>
                <path d="M32.8829787,56.6712329 C30.0106383,59.2308078 29.2925532,60.5707922 30.7287234,60.6911862 C32.1648936,60.8115801 32.8829787,59.4715957 32.8829787,56.6712329 Z" id="Path-6-Copy-27" fill="#F0E238" transform="translate(31.446809, 58.684932) scale(-1, 1) translate(-31.446809, -58.684932) "></path>
                <path d="M35.7553191,64.4383562 C32.8829787,66.9979311 32.1648936,68.3379155 33.6010638,68.4583094 C35.037234,68.5787034 35.7553191,67.2387189 35.7553191,64.4383562 Z" id="Path-6-Copy-26" fill="#F0E238" transform="translate(34.319149, 66.452055) scale(-1, 1) translate(-34.319149, -66.452055) "></path>
                <path d="M57.0106383,58.3972603 C54.1382979,60.9568352 53.4202128,62.2968196 54.856383,62.4172136 C56.2925532,62.5376075 57.0106383,61.1976231 57.0106383,58.3972603 Z" id="Path-6-Copy-24" fill="#F0E238" transform="translate(55.574468, 60.410959) scale(-1, 1) translate(-55.574468, -60.410959) "></path>
                <path d="M55.8617021,68.4657534 C52.9893617,71.0253284 52.2712766,72.3653128 53.7074468,72.4857067 C55.143617,72.6061006 55.8617021,71.2661162 55.8617021,68.4657534 Z" id="Path-6-Copy-31" fill="#F0E238" transform="translate(54.425532, 70.479452) scale(-1, 1) translate(-54.425532, -70.479452) "></path>
                <path d="M59.0212766,75.369863 C56.1489362,77.9294379 55.4308511,79.2694224 56.8670213,79.3898163 C58.3031915,79.5102102 59.0212766,78.1702258 59.0212766,75.369863 Z" id="Path-6-Copy-35" fill="#F0E238" transform="translate(57.585106, 77.383562) scale(-1, 1) translate(-57.585106, -77.383562) "></path>
                <path d="M31.1595745,23.3013699 C28.287234,25.8609448 27.5691489,27.2009292 29.0053191,27.3213231 C30.4414894,27.4417171 31.1595745,26.1017326 31.1595745,23.3013699 Z" id="Path-6-Copy-5" fill="#F0E238" transform="translate(29.723404, 25.315068) scale(-1, 1) translate(-29.723404, -25.315068) "></path>
                <path d="M17.3723404,10.9315068 C32.0278539,12.0157488 38.4359396,19.4952009 36.5965977,33.369863 C34.8049847,23.9231291 28.3968989,16.4436771 17.3723404,10.9315068 Z" id="Path-7" fill="#AFA200" transform="translate(27.138298, 22.150685) scale(-1, 1) translate(-27.138298, -22.150685) "></path>
                <path d="M66.4893617,11.7945205 C58.4892553,6.81550938 49.0105319,4.74070448 38.0531915,5.57010584 C44.1706842,3.76462883 49.1928791,3.11342543 53.1197762,3.61649564 C59.0101218,4.37110096 61.7950279,7.97817733 66.4893617,11.7945205 Z" id="Path-8" fill="#AFA200" transform="translate(52.271277, 7.623288) scale(-1, 1) translate(-52.271277, -7.623288) "></path>
                <path d="M71.9386225,14.4601762 C94.3305318,7.56996043 58.8991433,5.26507769 52.4398139,15.1673511 C45.9804844,25.0696246 39.3402273,51.4802805 45.9022903,79.112602 C46.0376152,79.6824446 49.5467132,21.3503919 71.9386225,14.4601762 Z" id="Path-9" fill="#5DADD6" style="mix-blend-mode: darken;" transform="translate(61.234614, 43.809590) scale(-1, 1) translate(-61.234614, -43.809590) "></path>
                <path d="M68.5,12.0333499 C52.5244913,4.68099906 41.801087,6.23152624 36.3297872,16.6849315 C47.0941125,12.4050946 57.8175168,10.8545674 68.5,12.0333499 Z" id="Path-3" fill="#DCCC02" transform="translate(52.414894, 12.082192) scale(-1, 1) translate(-52.414894, -12.082192) "></path>
            </g>
        </g>
    </g>
</svg>