<?xml version="1.0" encoding="UTF-8"?>
<svg width="81px" height="84px" viewBox="0 0 81 84" version="1.1" xmlns="http://www.w3.org/2000/svg" xmlns:xlink="http://www.w3.org/1999/xlink">
    <!-- Generator: Sketch 49 (51002) - http://www.bohemiancoding.com/sketch -->
    <title>pink berry</title>
    <desc>Created with Sketch.</desc>
    <defs></defs>
    <g id="Page-1" stroke="none" stroke-width="1" fill="none" fill-rule="evenodd">
        <g id="Desktop-Copy-8" transform="translate(-202.000000, -3754.000000)">
            <g id="pink-berry" transform="translate(243.000000, 3796.000000) scale(-1, 1) translate(-243.000000, -3796.000000) translate(201.000000, 3754.000000)">
                <path d="M43.445661,11.21552 C27.9470748,5.52024485 17.1946681,7.14601475 11.1884409,16.0928297 C2.17910011,29.5130521 -0.92328996,66.0280979 5.13257546,79.684565 C11.1884409,93.3410321 74.4485609,72.7934599 76.6803726,43.1904764 C78.168247,23.455154 67.0900098,12.7968353 43.445661,11.21552 Z" id="Path" fill="#FF7BA5"></path>
                <path d="M14.375,80.6174497 C40.1504953,71.5892832 59.622165,55.4282093 72.7900092,32.1342282 C76.2901128,42.8139152 72.1967339,53.3241875 60.5098725,63.665045 C42.9795803,79.1763313 26.7841576,80.3256191 14.375,80.6174497 Z" id="Path-2" fill="#D55F6D"></path>
                <path d="M43.625,10.7114094 C60.7453404,11.1709619 68.095479,18.6877404 65.6754157,33.261745 C58.2200094,22.906337 50.8698708,15.3895585 43.625,10.7114094 Z" id="Path-3" fill="#417505"></path>
                <path d="M47.5625,11.7910677 C31.6404807,4.58675075 20.9529807,6.10605927 15.5,16.3489933 C26.228284,12.1553276 36.915784,10.636019 47.5625,11.7910677 Z" id="Path-3" fill="#417505"></path>
                <path d="M43.6879868,11.2482488 C42.344429,8.86515431 62.8303806,7.13021321 73.1008811,12.9270115 C77.4494696,15.8483229 82.8437212,22.3219137 83,29.3154362 C71.5372154,18.9670321 61.413336,13.2980136 43.6879868,11.2482488 Z" id="Path-4" fill="#417505"></path>
                <path d="M49.0172436,14.6577181 C37.7273365,6.5454298 29.0199666,4.85944606 17.1875,5.52527085 C20.7902173,1.02633759 27.1638665,-0.337803614 31.1482148,0.0677866745 C40.0046306,1.74825941 50.991801,13.812968 49.0172436,14.6577181 Z" id="Path-45" fill="#417505"></path>
                <path d="M43.625,10.7114094 C45.919847,6.56497744 47.6110086,4.19473847 48.6984849,3.60069248 C50.3296993,2.7096235 53.0357463,4.81062058 53.7027287,5.20633824 C54.1473836,5.47015001 51.4550735,7.30517373 45.6257983,10.7114094 L43.625,10.7114094 Z" id="Path-5" fill="#2E5600"></path>
                <path d="M32.375,18.0402685 C29.5625,20.5483083 28.859375,21.8613132 30.265625,21.9792831 C31.671875,22.097253 32.375,20.7842481 32.375,18.0402685 Z" id="Path-6" fill="#DCCC02"></path>
                <path d="M34.625,27.0604027 C31.8125,29.5684425 31.109375,30.8814474 32.515625,30.9994173 C33.921875,31.1173872 34.625,29.8043823 34.625,27.0604027 Z" id="Path-6-Copy" fill="#DCCC02"></path>
                <path d="M28.4375,39.4630872 C25.625,41.9711271 24.921875,43.284132 26.328125,43.4021019 C27.734375,43.5200718 28.4375,42.2070669 28.4375,39.4630872 Z" id="Path-6-Copy-11" fill="#DCCC02"></path>
                <path d="M23.9375,52.4295302 C21.125,54.9375701 20.421875,56.2505749 21.828125,56.3685448 C23.234375,56.4865147 23.9375,55.1735098 23.9375,52.4295302 Z" id="Path-6-Copy-17" fill="#DCCC02"></path>
                <path d="M20.5625,66.5234899 C17.75,69.0315298 17.046875,70.3445347 18.453125,70.4625046 C19.859375,70.5804744 20.5625,69.2674696 20.5625,66.5234899 Z" id="Path-6-Copy-21" fill="#DCCC02"></path>
                <path d="M13.25,74.4161074 C10.4375,76.9241472 9.734375,78.2371521 11.140625,78.355122 C12.546875,78.4730919 13.25,77.160087 13.25,74.4161074 Z" id="Path-6-Copy-32" fill="#DCCC02"></path>
                <path d="M25.0625,31.5704698 C22.25,34.0785097 21.546875,35.3915145 22.953125,35.5094844 C24.359375,35.6274543 25.0625,34.3144494 25.0625,31.5704698 Z" id="Path-6-Copy-8" fill="#DCCC02"></path>
                <path d="M17.75,40.590604 C14.9375,43.0986439 14.234375,44.4116488 15.640625,44.5296187 C17.046875,44.6475885 17.75,43.3345837 17.75,40.590604 Z" id="Path-6-Copy-12" fill="#DCCC02"></path>
                <path d="M15.5,58.6308725 C12.6875,61.1389123 11.984375,62.4519172 13.390625,62.5698871 C14.796875,62.687857 15.5,61.3748521 15.5,58.6308725 Z" id="Path-6-Copy-22" fill="#DCCC02"></path>
                <path d="M5.9375,38.8993289 C3.125,41.4073687 2.421875,42.7203736 3.828125,42.8383435 C5.234375,42.9563134 5.9375,41.6433085 5.9375,38.8993289 Z" id="Path-6-Copy-20" fill="#DCCC02"></path>
                <path d="M10.4375,50.1744966 C7.625,52.6825365 6.921875,53.9955414 8.328125,54.1135113 C9.734375,54.2314812 10.4375,52.9184763 10.4375,50.1744966 Z" id="Path-6-Copy-16" fill="#DCCC02"></path>
                <path d="M7.625,64.2684564 C4.8125,66.7764962 4.109375,68.0895011 5.515625,68.207471 C6.921875,68.3254409 7.625,67.012436 7.625,64.2684564 Z" id="Path-6-Copy-23" fill="#DCCC02"></path>
                <path d="M13.25,29.3154362 C10.4375,31.8234761 9.734375,33.136481 11.140625,33.2544509 C12.546875,33.3724208 13.25,32.0594159 13.25,29.3154362 Z" id="Path-6-Copy-7" fill="#DCCC02"></path>
                <path d="M22.8125,23.114094 C20,25.6221338 19.296875,26.9351387 20.703125,27.0531086 C22.109375,27.1710785 22.8125,25.8580736 22.8125,23.114094 Z" id="Path-6-Copy-2" fill="#DCCC02"></path>
                <path d="M16.0625,17.4765101 C13.25,19.9845499 12.546875,21.2975548 13.953125,21.4155247 C15.359375,21.5334946 16.0625,20.2204897 16.0625,17.4765101 Z" id="Path-6-Copy-6" fill="#DCCC02"></path>
                <path d="M44.75,17.4765101 C41.9375,19.9845499 41.234375,21.2975548 42.640625,21.4155247 C44.046875,21.5334946 44.75,20.2204897 44.75,17.4765101 Z" id="Path-6-Copy-3" fill="#DCCC02"></path>
                <path d="M44.75,27.0604027 C41.9375,29.5684425 41.234375,30.8814474 42.640625,30.9994173 C44.046875,31.1173872 44.75,29.8043823 44.75,27.0604027 Z" id="Path-6-Copy-4" fill="#DCCC02"></path>
                <path d="M52.625,32.1342282 C49.8125,34.642268 49.109375,35.9552729 50.515625,36.0732428 C51.921875,36.1912127 52.625,34.8782078 52.625,32.1342282 Z" id="Path-6-Copy-10" fill="#DCCC02"></path>
                <path d="M58.25,39.4630872 C55.4375,41.9711271 54.734375,43.284132 56.140625,43.4021019 C57.546875,43.5200718 58.25,42.2070669 58.25,39.4630872 Z" id="Path-6-Copy-14" fill="#DCCC02"></path>
                <path d="M65,31.5704698 C62.1875,34.0785097 61.484375,35.3915145 62.890625,35.5094844 C64.296875,35.6274543 65,34.3144494 65,31.5704698 Z" id="Path-6-Copy-33" fill="#DCCC02"></path>
                <path d="M39.125,35.5167785 C36.3125,38.0248184 35.609375,39.3378233 37.015625,39.4557931 C38.421875,39.573763 39.125,38.2607582 39.125,35.5167785 Z" id="Path-6-Copy-9" fill="#DCCC02"></path>
                <path d="M44.75,42.8456376 C41.9375,45.3536774 41.234375,46.6666823 42.640625,46.7846522 C44.046875,46.9026221 44.75,45.5896172 44.75,42.8456376 Z" id="Path-6-Copy-15" fill="#DCCC02"></path>
                <path d="M52.625,48.4832215 C49.8125,50.9912613 49.109375,52.3042662 50.515625,52.4222361 C51.921875,52.540206 52.625,51.2272011 52.625,48.4832215 Z" id="Path-6-Copy-18" fill="#DCCC02"></path>
                <path d="M48.125,54.6845638 C45.3125,57.1926036 44.609375,58.5056085 46.015625,58.6235784 C47.421875,58.7415483 48.125,57.4285434 48.125,54.6845638 Z" id="Path-6-Copy-36" fill="#DCCC02"></path>
                <path d="M65,56.3758389 C62.1875,58.8838788 61.484375,60.1968837 62.890625,60.3148536 C64.296875,60.4328234 65,59.1198186 65,56.3758389 Z" id="Path-6-Copy-30" fill="#DCCC02" style="mix-blend-mode: multiply;"></path>
                <path d="M63.3125,46.7919463 C60.5,49.2999862 59.796875,50.612991 61.203125,50.7309609 C62.609375,50.8489308 63.3125,49.5359259 63.3125,46.7919463 Z" id="Path-6-Copy-29" fill="#DCCC02" style="mix-blend-mode: multiply;"></path>
                <path d="M73.4375,38.8993289 C70.625,41.4073687 69.921875,42.7203736 71.328125,42.8383435 C72.734375,42.9563134 73.4375,41.6433085 73.4375,38.8993289 Z" id="Path-6-Copy-28" fill="#DCCC02" style="mix-blend-mode: multiply;"></path>
                <path d="M32.375,48.4832215 C29.5625,50.9912613 28.859375,52.3042662 30.265625,52.4222361 C31.671875,52.540206 32.375,51.2272011 32.375,48.4832215 Z" id="Path-6-Copy-13" fill="#DCCC02"></path>
                <path d="M40.8125,52.4295302 C38,54.9375701 37.296875,56.2505749 38.703125,56.3685448 C40.109375,56.4865147 40.8125,55.1735098 40.8125,52.4295302 Z" id="Path-6-Copy-19" fill="#DCCC02"></path>
                <path d="M39.125,62.5771812 C36.3125,65.0852211 35.609375,66.3982259 37.015625,66.5161958 C38.421875,66.6341657 39.125,65.3211608 39.125,62.5771812 Z" id="Path-6-Copy-25" fill="#DCCC02"></path>
                <path d="M40.8125,68.2147651 C38,70.722805 37.296875,72.0358098 38.703125,72.1537797 C40.109375,72.2717496 40.8125,70.9587447 40.8125,68.2147651 Z" id="Path-6-Copy-34" fill="#DCCC02" style="mix-blend-mode: multiply;"></path>
                <path d="M53.75,56.3758389 C50.9375,58.8838788 50.234375,60.1968837 51.640625,60.3148536 C53.046875,60.4328234 53.75,59.1198186 53.75,56.3758389 Z" id="Path-6-Copy-27" fill="#DCCC02" style="mix-blend-mode: multiply;"></path>
                <path d="M51.5,64.2684564 C48.6875,66.7764962 47.984375,68.0895011 49.390625,68.207471 C50.796875,68.3254409 51.5,67.012436 51.5,64.2684564 Z" id="Path-6-Copy-26" fill="#DCCC02" style="mix-blend-mode: multiply;"></path>
                <path d="M29.5625,58.6308725 C26.75,61.1389123 26.046875,62.4519172 27.453125,62.5698871 C28.859375,62.687857 29.5625,61.3748521 29.5625,58.6308725 Z" id="Path-6-Copy-24" fill="#DCCC02"></path>
                <path d="M30.6875,68.2147651 C27.875,70.722805 27.171875,72.0358098 28.578125,72.1537797 C29.984375,72.2717496 30.6875,70.9587447 30.6875,68.2147651 Z" id="Path-6-Copy-31" fill="#DCCC02"></path>
                <path d="M27.3125,75.5436242 C24.5,78.051664 23.796875,79.3646689 25.203125,79.4826388 C26.609375,79.6006087 27.3125,78.2876038 27.3125,75.5436242 Z" id="Path-6-Copy-35" fill="#DCCC02" style="mix-blend-mode: multiply;"></path>
                <path d="M56,23.114094 C53.1875,25.6221338 52.484375,26.9351387 53.890625,27.0531086 C55.296875,27.1710785 56,25.8580736 56,23.114094 Z" id="Path-6-Copy-5" fill="#DCCC02"></path>
                <path d="M46,10.7114094 C60.7722547,11.8010623 67.2313852,19.3178408 65.3773917,33.261745 C63.5715072,23.7678668 57.1123767,16.2510883 46,10.7114094 Z" id="Path-7" fill="#2A4F00"></path>
                <path d="M45.875,11.8389262 C37.9624369,6.79193036 28.5874369,4.68879556 17.75,5.52952177 C23.8005505,3.69939233 28.7677887,3.03929724 32.6517147,3.5492365 C38.4776037,4.31414539 41.2320351,7.97047366 45.875,11.8389262 Z" id="Path-8" fill="#2A4F00"></path>
                <rect id="Rectangle-3" x="0" y="0" width="84" height="84"></rect>
            </g>
        </g>
    </g>
</svg>